<svg width="50" height="50" viewBox="0 0 50 50" fill="none" xmlns="http://www.w3.org/2000/svg">
<g clip-path="url(#clip0_105_2)">
<g clip-path="url(#clip1_105_2)">
<path d="M25 50C38.8071 50 50 38.8071 50 25C50 11.1929 38.8071 0 25 0C11.1929 0 0 11.1929 0 25C0 38.8071 11.1929 50 25 50Z" fill="#FCFF52"/>
<path fill-rule="evenodd" clip-rule="evenodd" d="M38.986 10.924H11.014V39.078H38.988V29.25H34.346C32.746 32.836 29.144 35.332 25.022 35.332C19.34 35.332 14.738 30.66 14.738 24.982C14.738 19.302 19.34 14.67 25.022 14.67C29.224 14.67 32.826 17.248 34.426 20.912H38.988V10.924H38.986Z" fill="black"/>
</g>
</g>
<defs>
<clipPath id="clip0_105_2">
<rect width="50" height="50" fill="white"/>
</clipPath>
<clipPath id="clip1_105_2">
<rect width="50" height="50" fill="white"/>
</clipPath>
</defs>
</svg>
