<svg width="281" height="254" viewBox="0 0 281 254" fill="none" xmlns="http://www.w3.org/2000/svg">
<path d="M208.26 128.954C241.515 128.954 268.474 101.995 268.474 68.7403C268.474 35.4851 241.515 8.52641 208.26 8.52641C175.005 8.52641 148.046 35.4851 148.046 68.7403C148.046 101.995 175.005 128.954 208.26 128.954Z" fill="#1D1D1B" stroke="white" stroke-width="3" stroke-linecap="round" stroke-linejoin="round"/>
<path d="M73.7403 130.088C106.995 130.088 133.954 103.129 133.954 69.8741C133.954 36.6189 106.995 9.66023 73.7403 9.66023C40.4851 9.66023 13.5264 36.6189 13.5264 69.8741C13.5264 103.129 40.4851 130.088 73.7403 130.088Z" fill="#1D1D1B" stroke="white" stroke-width="3" stroke-linecap="round" stroke-linejoin="round"/>
<path d="M140.96 246.061C174.215 246.061 201.173 219.103 201.173 185.848C201.173 152.592 174.215 125.634 140.96 125.634C107.704 125.634 80.7457 152.592 80.7457 185.848C80.7457 219.103 107.704 246.061 140.96 246.061Z" fill="#1D1D1B" stroke="white" stroke-width="3" stroke-linecap="round" stroke-linejoin="round"/>
<path fill-rule="evenodd" clip-rule="evenodd" d="M122.373 121.989L140.96 110.955V89.5944L122.373 100.629V121.989Z" fill="#C4C1CF" stroke="#1D1D1B" stroke-width="0.5" stroke-linecap="round" stroke-linejoin="round"/>
<path fill-rule="evenodd" clip-rule="evenodd" d="M159.566 121.989L140.96 110.955V89.5944L159.566 100.629V121.989Z" fill="#C4C1CF" stroke="#1D1D1B" stroke-width="0.5" stroke-linecap="round" stroke-linejoin="round"/>
<path fill-rule="evenodd" clip-rule="evenodd" d="M140.96 164.082L117.534 150.193V123.285L140.96 137.174V164.082Z" fill="#C4C1CF" stroke="#1D1D1B" stroke-width="0.5" stroke-linecap="round" stroke-linejoin="round"/>
<path fill-rule="evenodd" clip-rule="evenodd" d="M140.96 164.082L164.385 150.193V123.285L140.96 137.174V164.082Z" fill="white" stroke="#1D1D1B" stroke-width="0.5" stroke-linecap="round" stroke-linejoin="round"/>
<path fill-rule="evenodd" clip-rule="evenodd" d="M117.534 123.285L140.96 137.174L164.385 123.285L140.96 109.376L117.534 123.285Z" fill="#C4C1CF" stroke="#1D1D1B" stroke-width="0.5" stroke-linecap="round" stroke-linejoin="round"/>
<path fill-rule="evenodd" clip-rule="evenodd" d="M117.534 96.4986V96.5391L94.1288 82.6498V109.558L117.534 123.447V123.407L140.96 137.296V110.388L117.534 96.4986Z" fill="#C4C1CF" stroke="#1D1D1B" stroke-width="0.5" stroke-linecap="round" stroke-linejoin="round"/>
<path fill-rule="evenodd" clip-rule="evenodd" d="M164.385 96.5391V96.4986L140.96 110.388V137.296L164.385 123.407V123.447L187.811 109.558V82.6498L164.385 96.5391Z" fill="white" stroke="#1D1D1B" stroke-width="0.5" stroke-linecap="round" stroke-linejoin="round"/>
<path fill-rule="evenodd" clip-rule="evenodd" d="M187.811 82.6498L164.385 68.7403L141 82.6093L140.96 82.5891L140.919 82.6093L117.534 68.7403L94.1288 82.6498L117.534 96.5391L117.575 96.5188L140.96 110.388L164.365 96.5188L164.385 96.5391L187.811 82.6498Z" fill="#EAEEFA" stroke="#1D1D1B" stroke-width="0.5" stroke-linecap="round" stroke-linejoin="round"/>
</svg>
